<svg width="307" height="219" viewBox="0 0 307 219" fill="none" xmlns="http://www.w3.org/2000/svg">
<path d="M113.912 74.2994C113.145 64.4955 101.909 58.7212 92.6372 63.072C82.5676 67.8097 70.2186 78.6648 67.6628 103.558C63.1959 146.978 127.658 145.511 127.658 145.511L130.183 137.861C130.183 137.861 88.0169 129.298 88.7921 111.581C89.6593 91.7683 115.125 90.2791 113.912 74.2994Z" fill="#4361EE"/>
<path opacity="0.46" d="M113.912 74.2994C113.145 64.4955 101.909 58.7212 92.6372 63.072C82.5676 67.8097 70.2186 78.6648 67.6628 103.558C63.1959 146.978 127.658 145.511 127.658 145.511L130.183 137.861C130.183 137.861 88.0169 129.298 88.7921 111.581C89.6593 91.7683 115.125 90.2791 113.912 74.2994Z" fill="white"/>
<path opacity="0.45" d="M159.671 195.531C230.882 195.531 288.611 189.546 288.611 182.164C288.611 174.782 230.882 168.798 159.671 168.798C88.4591 168.798 30.7307 174.782 30.7307 182.164C30.7307 189.546 88.4591 195.531 159.671 195.531Z" fill="#E6E6E6"/>
<path d="M60.433 175.069C60.433 175.069 61.7608 178.507 65.038 178.719C68.3153 178.93 69.1825 181.996 66.2507 182.807C63.3188 183.617 55.7129 180.084 55.7129 180.084L55.8894 175.594L60.433 175.069Z" fill="#4361EE"/>
<path d="M92.0539 175.069C92.0539 175.069 93.3817 178.507 96.6589 178.719C99.9361 178.93 100.811 181.996 97.8792 182.807C94.9474 183.617 87.3337 180.084 87.3337 180.084L87.5103 175.594L92.0539 175.069Z" fill="#4361EE"/>
<path d="M131.642 36.5438C131.642 36.5438 128.871 41.2304 125.97 43.6613C125.688 43.896 125.361 44.0756 125.006 44.1898C124.652 44.304 124.277 44.3506 123.903 44.3268C123.53 44.3031 123.165 44.2095 122.829 44.0515C122.494 43.8934 122.194 43.674 121.948 43.4058C120.682 41.9969 119.4 39.7558 120.567 37.0621L121.956 32.2806C122.338 31.3465 123.016 30.5484 123.896 29.9966C124.776 29.4448 125.814 29.1664 126.868 29.2C130.797 29.1343 133.491 33.7625 131.642 36.5438Z" fill="#F4A28C"/>
<path d="M120.735 33.9085L106.813 45.552L114.104 52.3921L121.127 41.4567L120.735 33.9085Z" fill="#F4A28C"/>
<path d="M130.352 35.9744C128.872 35.0847 127.505 34.0363 126.277 32.85C126.259 33.7251 125.973 34.5762 125.453 35.2986C124.934 36.021 124.203 36.5832 123.352 36.9161C122.534 37.2538 121.617 37.3095 120.759 37.0737C119.902 36.8379 119.158 36.3252 118.655 35.624L122.838 29.9665C123.412 29.1379 124.21 28.4723 125.15 28.0405C126.089 27.6087 127.133 27.4266 128.172 27.5137C129.071 27.5785 129.963 27.7029 130.843 27.886C133.046 28.3459 134.788 31.0907 137.129 30.9885C137.362 30.9841 137.593 31.0366 137.799 31.141C138.005 31.2453 138.179 31.3981 138.305 31.5848C138.431 31.7714 138.505 31.9857 138.52 32.2072C138.534 32.4286 138.489 32.65 138.388 32.85C137.413 34.7626 135.126 37.2811 131.971 36.6241C131.397 36.4952 130.85 36.2756 130.352 35.9744Z" fill="#24285B"/>
<path d="M123.951 37.1132C123.951 37.1132 125.141 35.3831 123.698 34.6312C122.255 33.8793 120.513 36.3832 122.163 37.8067L123.951 37.1132Z" fill="#F4A28C"/>
<path d="M129.708 39.42L129.777 41.9823C129.781 42.1278 129.746 42.272 129.676 42.4013C129.606 42.5307 129.502 42.641 129.375 42.7219C129.247 42.8028 129.101 42.8518 128.948 42.8641C128.796 42.8765 128.642 42.8519 128.503 42.7926L126.492 41.9531L129.708 39.42Z" fill="#F4A28C"/>
<path opacity="0.31" d="M120.927 41.7706C120.201 40.7947 119.768 39.6488 119.676 38.4564C119.676 38.4564 116.391 40.7267 118.909 44.9023L120.927 41.7706Z" fill="#CE8172"/>
<path d="M240.227 159.95C240.227 159.95 243.681 156.483 247.519 159.95C251.356 163.418 248.478 166.52 248.478 166.52C248.478 166.52 253.275 163.819 255.002 167.25C255.396 168.021 255.558 168.88 255.47 169.732C255.44 170.157 255.506 170.584 255.665 170.982C255.824 171.38 256.072 171.741 256.391 172.04C256.71 172.339 257.094 172.568 257.515 172.713C257.936 172.858 258.385 172.914 258.832 172.879C262.669 172.667 267.274 173.448 268.042 178.186L251.924 177.273L238.923 168.294L240.227 159.95Z" fill="#E6E6E6"/>
<path d="M231.202 176.054C231.202 176.054 243.635 145.146 237.242 98.185C237.242 98.185 252.791 141.854 237.058 177.755L231.202 176.054Z" fill="#A5A5A5"/>
<path d="M90.0661 40.7632C90.0661 40.7632 117.504 44.3183 137.451 64.7072C157.399 85.0961 88.508 126.94 88.508 126.94L52.4356 115.165C52.4356 115.165 50.041 31.9448 90.0661 40.7632Z" fill="#4361EE"/>
<path d="M132.447 137.349L132.271 137.276L127.865 135.086C124.875 133.51 122.651 130.884 121.669 127.77C120.687 124.655 121.025 121.298 122.611 118.417C124.197 115.536 126.904 113.359 130.155 112.352C133.406 111.345 136.942 111.586 140.007 113.026L144.413 115.216C144.558 115.288 144.687 115.386 144.792 115.505C144.897 115.625 144.976 115.762 145.026 115.911C145.075 116.059 145.093 116.216 145.078 116.371C145.064 116.526 145.018 116.677 144.942 116.815C144.867 116.953 144.763 117.075 144.638 117.175C144.513 117.275 144.368 117.351 144.212 117.398C144.055 117.444 143.891 117.461 143.728 117.448C143.565 117.434 143.407 117.39 143.261 117.318L138.856 115.128C136.365 113.888 133.457 113.64 130.774 114.439C128.09 115.238 125.85 117.018 124.546 119.388C123.242 121.758 122.982 124.523 123.821 127.075C124.661 129.628 126.533 131.759 129.024 132.999L133.43 135.189C133.735 135.313 133.976 135.547 134.1 135.84C134.224 136.133 134.22 136.46 134.09 136.751C133.96 137.041 133.713 137.271 133.405 137.388C133.097 137.506 132.753 137.503 132.447 137.379V137.349Z" fill="#FFD200"/>
<path opacity="0.08" d="M94.8629 52.5162C94.8629 52.5162 104.319 70.7662 88.6078 87.0598C72.8971 103.353 102.269 117.764 102.269 117.764L88.508 126.94L52.4355 115.165C52.4355 115.165 52.9574 99.28 53.5024 91.6442C54.0473 84.0084 94.8629 52.5162 94.8629 52.5162Z" fill="black"/>
<path opacity="0.6" d="M132.447 137.349L132.271 137.276L127.865 135.086C124.875 133.51 122.651 130.884 121.669 127.77C120.687 124.655 121.025 121.298 122.611 118.417C124.197 115.536 126.904 113.359 130.155 112.352C133.406 111.345 136.942 111.586 140.007 113.026L144.413 115.216C144.558 115.288 144.687 115.386 144.792 115.505C144.897 115.625 144.976 115.762 145.026 115.911C145.075 116.059 145.093 116.216 145.078 116.371C145.064 116.526 145.018 116.677 144.942 116.815C144.867 116.953 144.763 117.075 144.638 117.175C144.513 117.275 144.368 117.351 144.212 117.398C144.055 117.444 143.891 117.461 143.728 117.448C143.565 117.434 143.407 117.39 143.261 117.318L138.856 115.128C136.365 113.888 133.457 113.64 130.774 114.439C128.09 115.238 125.85 117.018 124.546 119.388C123.242 121.758 122.982 124.523 123.821 127.075C124.661 129.628 126.533 131.759 129.024 132.999L133.43 135.189C133.735 135.313 133.976 135.547 134.1 135.84C134.224 136.133 134.22 136.46 134.09 136.751C133.96 137.041 133.713 137.271 133.405 137.388C133.097 137.506 132.753 137.503 132.447 137.379V137.349Z" fill="white"/>
<path d="M94.8631 52.5162C92.7525 42.8948 80.7795 38.5951 72.1988 44.092C62.8814 50.0561 52.1901 62.3858 53.1188 87.3737C54.7843 130.977 118.464 121.355 118.464 121.355L119.891 113.449C119.891 113.449 76.9113 110.303 75.1921 92.6589C73.2733 72.9051 98.3015 68.1966 94.8631 52.5162Z" fill="#4361EE"/>
<path opacity="0.46" d="M94.8631 52.5162C92.7525 42.8948 80.7795 38.5951 72.1988 44.092C62.8814 50.0561 52.1901 62.3858 53.1188 87.3737C54.7843 130.977 118.464 121.355 118.464 121.355L119.891 113.449C119.891 113.449 76.9113 110.303 75.1921 92.6589C73.2733 72.9051 98.3015 68.1966 94.8631 52.5162Z" fill="white"/>
<path d="M144.336 107.682L122.669 137.503L152.94 152.577L163.854 117.399L144.336 107.682Z" fill="#FFD200"/>
<path d="M147.36 141.744L179.234 125.042L187.032 128.925C187.27 129.051 187.457 129.247 187.565 129.485C187.673 129.722 187.694 129.987 187.627 130.238C187.559 130.488 187.406 130.71 187.192 130.869C186.977 131.028 186.713 131.115 186.441 131.115L182.895 131.05C181.925 131.043 180.973 131.296 180.147 131.78L149.946 149.008L147.36 141.744Z" fill="#FFD200"/>
<path d="M119.469 115.785C119.469 115.785 127.083 113.223 129.446 117.421C131.81 121.618 126.476 123.187 118.471 121.355L119.469 115.785Z" fill="#F4A28C"/>
<path d="M144.336 107.682L157.291 108.091L163.853 117.399L144.336 107.682Z" fill="#FFD200"/>
<path opacity="0.17" d="M144.336 107.682L157.291 108.091L163.853 117.399L144.336 107.682Z" fill="black"/>
<path d="M128.042 144.358C128.042 144.358 135.065 147.657 137.782 143.554L129.216 140.788L128.042 144.358Z" fill="#F4A28C"/>
<g opacity="0.48">
<path opacity="0.48" d="M187.654 126.706C187.654 126.706 188.045 126.582 188.759 126.407" stroke="#C9C9C9" stroke-width="2" stroke-linecap="round" stroke-linejoin="round"/>
<path opacity="0.48" d="M192.297 125.764C200.632 124.699 217.978 125.385 226.067 147.168" stroke="#C9C9C9" stroke-width="2" stroke-linecap="round" stroke-linejoin="round" stroke-dasharray="2.82 4.7"/>
<path opacity="0.48" d="M226.643 148.796C226.758 149.139 226.873 149.482 226.981 149.84" stroke="#C9C9C9" stroke-width="2" stroke-linecap="round" stroke-linejoin="round"/>
</g>
<path d="M52.3972 115.165L54.1471 175.806H61.6226L66.1662 142.226C66.5454 139.435 67.7706 136.809 69.6922 134.669C71.6138 132.529 74.1488 130.967 76.9879 130.174L88.5004 126.947L52.3972 115.165Z" fill="#24285B"/>
<path d="M88.5082 126.94L93.4892 175.806H86.2671L70.4565 130.13L88.5082 126.94Z" fill="#24285B"/>
<path d="M243.236 149.964C243.236 149.964 245.539 138.284 263.69 139.123C263.69 139.123 259.883 156.775 243.236 149.964Z" fill="#C9C9C9"/>
<path d="M234.088 96.0315C234.088 96.0315 225.1 84.3515 231.186 77.0515C237.273 69.7515 260.589 76.577 243.827 96.4914L234.088 96.0315Z" fill="#E6E6E6"/>
<path d="M241.532 94.4912C241.532 94.4912 249.837 82.3951 259.185 85.2421C268.533 88.0891 269.976 111.259 244.487 103.332L241.532 94.4912Z" fill="#E6E6E6"/>
<path d="M246.176 101.784C246.176 101.784 261.203 99.6742 265.164 108.215C269.124 116.756 251.855 133.159 241.179 109.756L246.176 101.784Z" fill="#E6E6E6"/>
<path d="M243.743 108.982C243.743 108.982 253.628 119.932 248.14 127.692C242.653 135.451 218.86 130.261 233.988 109.208L243.743 108.982Z" fill="#E6E6E6"/>
<path d="M235.884 95.2139C235.884 95.2139 229.92 81.9279 220.188 83.1908C210.456 84.4537 204.8 107.018 231.355 103.434L235.884 95.2139Z" fill="#E6E6E6"/>
<path d="M229.92 101.667C229.92 101.667 215.23 100.134 211.899 108.661C208.568 117.187 226.297 132.663 235.246 109.31L229.92 101.667Z" fill="#E6E6E6"/>
<path d="M238.969 112.88C244.933 112.88 249.767 108.281 249.767 102.609C249.767 96.9362 244.933 92.3377 238.969 92.3377C233.005 92.3377 228.17 96.9362 228.17 102.609C228.17 108.281 233.005 112.88 238.969 112.88Z" fill="#C9C9C9"/>
<path opacity="0.43" d="M235.883 105.127C238.855 105.127 241.264 102.836 241.264 100.01C241.264 97.1838 238.855 94.8927 235.883 94.8927C232.912 94.8927 230.503 97.1838 230.503 100.01C230.503 102.836 232.912 105.127 235.883 105.127Z" fill="#A5A5A5"/>
<path opacity="0.43" d="M233.965 100.769C235.202 100.769 236.206 99.8148 236.206 98.6376C236.206 97.4603 235.202 96.506 233.965 96.506C232.727 96.506 231.724 97.4603 231.724 98.6376C231.724 99.8148 232.727 100.769 233.965 100.769Z" fill="#A5A5A5"/>
<path d="M205.467 177.748C205.467 177.748 202.397 173.682 207.386 170.083C212.375 166.484 215.245 174.463 219.666 169.075C222.352 165.79 218.991 164.871 222.736 159.133C224.463 156.483 229.068 154.023 233.481 158.403C234.829 159.69 235.846 161.257 236.451 162.98C236.534 163.224 236.674 163.446 236.862 163.63C237.05 163.814 237.28 163.954 237.534 164.04C237.788 164.125 238.059 164.154 238.327 164.123C238.594 164.093 238.851 164.004 239.076 163.863C240.251 163.133 241.893 162.892 244.103 164.148C244.912 164.536 245.601 165.116 246.104 165.833C246.607 166.549 246.907 167.377 246.974 168.236C247.003 169.183 247.412 170.083 248.117 170.753C248.822 171.422 249.77 171.809 250.765 171.835C254.718 171.835 259.576 172.879 259.576 177.748H205.467Z" fill="#C9C9C9"/>
</svg>
